<svg xmlns="http://www.w3.org/2000/svg" preserveAspectRatio="xMidYMid" width="108" height="52" viewBox="0 0 108 52"><defs><style>.cls-2 { fill: #592d5e; }</style></defs><path fill="#592d5e" d="M98.648 21.595c0 1.97 1.944 2.23 4.167 2.92 2.733.845 5.186 2.047 5.186 5.455 0 3.48-2.606 5.582-6.438 5.582-1.812 0-4.034-.487-5.725-1.407v-3.408c1.867 1.334 4.218 1.922 5.753 1.922 1.84 0 3.166-.797 3.166-2.51 0-2.052-1.94-2.332-4.344-3.05-2.58-.792-5.007-1.97-5.007-5.275 0-3.354 2.504-5.377 6.235-5.377 1.79 0 3.934.435 5.49 1.357v3.277c-1.837-1.202-4.01-1.74-5.516-1.74-1.74 0-2.966.69-2.966 2.253zm-5.585 8.144c0 1.74-.715 3.302-2.428 4.35-1.326.818-3.066 1.18-5.72 1.18H79.75V16.73h5.162c2.452 0 3.985.254 5.238 1 1.354.793 2.168 2.047 2.168 3.737 0 2-1.173 3.225-2.783 3.79v.052c2.273.56 3.526 2.125 3.526 4.43zm-5.135-9.655c-.717-.41-1.582-.516-3.22-.516h-1.71v5.047h2.885c1.79 0 3.192-.77 3.192-2.508 0-.976-.432-1.616-1.147-2.025zm-1.942 6.86h-2.99v5.48h2.07c1.917 0 2.964-.203 3.682-.663.587-.383 1.07-1.025 1.07-2.1 0-1.79-1.38-2.716-3.832-2.716zm-18.877-.61c-1.068-1.54-2.07-2.997-3.068-4.484l-.048.027c.048 1.742.048 3.636.048 5.61v7.782h-2.948V16.73h2.878l6.23 8.936c1.068 1.536 2.067 2.997 3.066 4.483l.047-.024c-.047-1.743-.047-3.64-.047-5.61V16.73h2.966v18.54h-2.897l-6.228-8.936zM30.547 26c4.284-5.638 11.05-9.276 18.668-9.276v18.552c-7.618 0-14.384-3.64-18.668-9.276zm-2.976-5.152c-1.17-2.796-1.817-5.866-1.817-9.09 0-4.284 1.144-8.3 3.142-11.76l16.03 9.28c-3.587 6.215-9.93 10.63-17.355 11.57zM4.287 42.72c3.59-6.213 9.932-10.63 17.356-11.57 1.172 2.798 1.818 5.868 1.818 9.09 0 4.285-1.142 8.302-3.14 11.762l-16.033-9.28zm0-33.443L20.32 0c1.998 3.458 3.14 7.474 3.14 11.76 0 3.222-.645 6.292-1.817 9.088-7.424-.94-13.767-5.355-17.356-11.57zM18.67 26C14.384 31.635 7.618 35.276 0 35.276V16.724c7.618 0 14.384 3.638 18.67 9.276zm26.258 16.72l-16.034 9.282c-1.995-3.46-3.14-7.477-3.14-11.76 0-3.224.647-6.294 1.818-9.092 7.425.94 13.77 5.357 17.356 11.57z" id="path-1" class="cls-2" fill-rule="evenodd"/></svg>