<?xml version="1.0" encoding="utf-8"?>
<!-- Generator: Adobe Illustrator 23.0.4, SVG Export Plug-In . SVG Version: 6.00 Build 0)  -->
<svg version="1.1" id="Layer_1" xmlns="http://www.w3.org/2000/svg" xmlns:xlink="http://www.w3.org/1999/xlink" x="0px" y="0px"
	 viewBox="0 0 409.08 169.48" style="enable-background:new 0 0 409.08 169.48;" xml:space="preserve">
<style type="text/css">
	.st0{fill:#FF5D6A;}
	.st1{enable-background:new    ;}
	.st2{fill:#0E1C43;}
	.st3{fill:none;}
</style>
<path class="st0" d="M406.68,110.99l-15.04-22.66c-1.59-2.4-1.59-5.5,0-7.9l14.44-21.77c2.92-4.41,3.19-10.04,0.69-14.7
	c-2.5-4.66-7.34-7.56-12.63-7.56h-20.7c-5.49,0-10.65,2.93-13.47,7.65l-5.24,8.8c-1.13,1.9-0.51,4.35,1.39,5.48
	c1.9,1.13,4.35,0.51,5.48-1.39l5.24-8.8c1.38-2.31,3.91-3.75,6.59-3.75h20.7c2.37,0,4.46,1.25,5.58,3.34
	c1.12,2.09,1.01,4.52-0.3,6.5L384.97,76c-3.37,5.09-3.37,11.66,0,16.75l15.04,22.66c1.31,1.98,1.43,4.41,0.3,6.5
	s-3.21,3.34-5.58,3.34h-20.4c-3.2,0-5.78-0.82-8.03-4.91L302.54,9.96C298.92,3.82,292.24,0,285.11,0h-25.53
	c-6.16,0-11.58,3.24-14.5,8.67c-2.91,5.43-2.62,11.74,0.79,16.87l34.56,52.07c0.07,0.13,0.12,0.27,0.21,0.4
	c1.35,2.04,2.03,4.38,2.04,6.72c-0.01,2.34-0.69,4.68-2.04,6.72c-0.08,0.13-0.14,0.26-0.21,0.4l-34.56,52.08
	c-3.41,5.14-3.7,11.44-0.79,16.87c2.91,5.43,8.33,8.67,14.5,8.67h25.53c7.13,0,13.81-3.82,17.43-9.95l26.2-44.23
	c1.13-1.9,0.5-4.35-1.4-5.48c-1.9-1.13-4.35-0.5-5.48,1.4l-26.2,44.24c-2.19,3.71-6.23,6.02-10.54,6.02h-25.53
	c-3.17,0-5.95-1.67-7.45-4.46s-1.35-6.03,0.41-8.67l34.77-52.39c2.26-3.41,3.39-7.32,3.38-11.23c0.01-3.91-1.12-7.82-3.38-11.23
	l-34.77-52.39c-1.75-2.64-1.9-5.88-0.41-8.67S256.42,8,259.58,8h25.53c4.31,0,8.35,2.31,10.52,5.99l63.71,110.27
	c3.32,6.05,8.23,8.99,14.99,8.99h20.4c5.29,0,10.13-2.9,12.63-7.56C409.87,121.03,409.61,115.4,406.68,110.99z"/>
<g class="st1">
	<path class="st2" d="M11.68,78.34H1.75c-1.71,0-2.16-0.69-1.38-2.07l12.39-23.5L0.37,30.25c-0.66-1.38-0.26-2.07,1.18-2.07h10.03
		c1.57,0,2.59,0.69,3.05,2.07l6.2,14.95h0.39l5.41-14.95c0.46-1.38,1.48-2.07,3.05-2.07h9.83c1.7,0,2.13,0.69,1.28,2.07l-11.8,22.52
		l12.69,23.5c0.33,0.59,0.38,1.08,0.15,1.47c-0.23,0.39-0.67,0.59-1.33,0.59H30.36c-1.38,0-2.36-0.69-2.95-2.07l-6.2-15.05h-0.39
		l-6.2,15.05C14.17,77.65,13.19,78.34,11.68,78.34z"/>
	<path class="st2" d="M58.13,76.27v-65c0-1.38,0.69-2.07,2.07-2.07h8.36c1.38,0,2.07,0.69,2.07,2.07V33.4h0.39
		c0.72-1.77,2-3.11,3.84-4.03c1.83-0.92,3.77-1.38,5.8-1.38h3.15c5.18,0,9.18,1.38,12,4.13c2.82,2.75,4.23,6.72,4.23,11.9v18.29
		c0,5.18-1.41,9.15-4.23,11.9c-2.82,2.75-6.82,4.13-12,4.13h-23.6C58.81,78.34,58.13,77.65,58.13,76.27z M71.7,67.52h10.03
		c2.1,0,3.59-0.44,4.47-1.33c0.89-0.89,1.33-2.38,1.33-4.47V44.61c0-2.1-0.44-3.59-1.33-4.47c-0.88-0.89-2.38-1.33-4.47-1.33H77.4
		c-4.52,0-6.78,2.49-6.78,7.47v20.16C70.61,67.16,70.97,67.52,71.7,67.52z"/>
	<path class="st2" d="M118.3,19.73v-8.56c0-1.31,0.65-1.97,1.97-1.97h8.56c1.31,0,1.97,0.62,1.97,1.87v8.65
		c0,1.31-0.66,1.97-1.97,1.97h-8.56C118.96,21.69,118.3,21.04,118.3,19.73z M118.3,76.27V30.25c0-1.38,0.65-2.07,1.97-2.07h8.46
		c1.38,0,2.07,0.69,2.07,2.07v46.02c0,0.85-0.15,1.41-0.44,1.67c-0.3,0.26-0.8,0.39-1.52,0.39h-8.46
		C118.99,78.34,118.3,77.65,118.3,76.27z"/>
	<path class="st2" d="M159.38,78.34h-8.36c-1.38,0-2.07-0.69-2.07-2.07V30.25c0-1.38,0.69-2.07,2.07-2.07h8.36
		c1.38,0,2.07,0.69,2.07,2.07v3.25h0.39c0.79-1.57,2.11-2.85,3.98-3.83c1.87-0.98,4.02-1.48,6.44-1.48h2.75
		c5.7,0,9.8,2.1,12.29,6.29c2.23-4.19,6.06-6.29,11.5-6.29h2.85c5.05,0,8.87,1.38,11.46,4.13c2.59,2.75,3.88,6.72,3.88,11.9v32.06
		c0,1.38-0.69,2.07-2.07,2.07h-8.36c-1.38,0-2.07-0.69-2.07-2.07V44.8c0-2.1-0.43-3.59-1.28-4.47c-0.85-0.89-2.33-1.33-4.42-1.33
		h-2.46c-4.52,0-6.78,2.52-6.78,7.57v29.7c0,1.38-0.72,2.07-2.16,2.07h-8.26c-1.38,0-2.07-0.69-2.07-2.07V44.8
		c0-2.1-0.44-3.59-1.33-4.47S173.37,39,171.27,39h-3.05c-4.52,0-6.78,2.49-6.78,7.47v29.8C161.44,77.65,160.75,78.34,159.38,78.34z"
		/>
</g>
<g>
	<path class="st3" d="M152.05,115.36h-7.81c-2.8,0-4.95,0.77-6.37,2.28c-1.44,1.53-2.17,3.77-2.17,6.65v8.8
		c0,0.07,0.01,0.11,0.01,0.13c0,0,0.01,0,0.01,0c0.02,0,0.06,0,0.12,0h24.61c0.07,0,0.11-0.01,0.13-0.01c0-0.02,0-0.06,0-0.13v-8.8
		c0-2.88-0.73-5.12-2.17-6.65C157,116.12,154.85,115.36,152.05,115.36z"/>
	<path class="st0" d="M82.28,90.33h-2.37c-8.83,0-13.3,4.91-13.3,14.58v4.35c0,0.07-0.01,0.11,0,0.13
		c-0.02,0.01-0.07,0.01-0.13,0.01h-6.32c-1.13,0-1.84,0.7-1.84,1.84v2.27c0,1.13,0.7,1.84,1.84,1.84h6.32c0.07,0,0.11,0.01,0.13,0
		c0.01,0.02,0.01,0.07,0.01,0.13v43.88c0,1.21,0.69,1.94,1.84,1.94h2.87c1.13,0,1.84-0.74,1.84-1.94V115.5c0-0.07,0.01-0.11,0-0.13
		c0.02-0.01,0.07-0.01,0.14-0.01h8.99c1.21,0,1.94-0.69,1.94-1.84v-2.27c0-1.15-0.72-1.84-1.94-1.84h-8.99c-0.07,0-0.12-0.01-0.13,0
		c-0.01-0.02-0.01-0.07-0.01-0.14v-4.15c0-3.05,0.55-5.32,1.63-6.77c1.03-1.37,2.92-2.07,5.63-2.07h1.88c1.21,0,1.94-0.69,1.94-1.84
		v-2.27C84.22,91.02,83.49,90.33,82.28,90.33z"/>
	<path class="st0" d="M106.59,90.33h-2.87c-1.09,0-1.74,0.72-1.74,1.94v67.1c0,1.21,0.65,1.94,1.74,1.94h2.87
		c1.13,0,1.84-0.74,1.84-1.94v-67.1C108.43,91.08,107.73,90.33,106.59,90.33z"/>
	<path class="st0" d="M152.35,109.41h-8.5c-4.47,0-8.06,1.34-10.66,3.98c-2.6,2.64-3.92,6.27-3.92,10.8v22.34
		c0,4.53,1.32,8.17,3.92,10.8c2.6,2.64,6.19,3.98,10.66,3.98h20.66c1.13,0,1.84-0.7,1.84-1.84v-2.27c0-1.13-0.7-1.84-1.84-1.84
		h-20.26c-2.8,0-4.95-0.77-6.37-2.28c-1.44-1.53-2.17-3.77-2.17-6.65v-7.61c0-0.07,0.01-0.11,0-0.13c0.02-0.01,0.07-0.01,0.13-0.01
		h29.25c1.21,0,1.94-0.72,1.94-1.94v-12.55c0-4.53-1.34-8.17-3.98-10.81C160.42,110.75,156.82,109.41,152.35,109.41z M160.59,124.29
		v8.8c0,0.07-0.01,0.11,0,0.13c-0.02,0.01-0.07,0.01-0.13,0.01h-24.61c-0.06,0-0.1,0-0.12,0c0,0-0.01,0-0.01,0
		c-0.01-0.02-0.01-0.07-0.01-0.13v-8.8c0-2.89,0.73-5.12,2.17-6.65c1.43-1.52,3.57-2.28,6.37-2.28h7.81c2.8,0,4.95,0.77,6.37,2.28
		C159.86,119.17,160.59,121.41,160.59,124.29z"/>
	<path class="st0" d="M219.11,158.99l-14.31-24.33l13.1-22.9c0.16-0.25,0.67-1,0.29-1.69c-0.24-0.44-0.71-0.66-1.41-0.66h-3.56
		c-0.65,0-1.58,0.27-2.34,1.58l-10.22,19.3l-10.68-19.29c-0.66-1.32-1.64-1.6-2.35-1.6h-3.56c-0.7,0-1.18,0.22-1.41,0.66
		c-0.37,0.69,0.13,1.44,0.27,1.65l13.42,23.14l-14.09,24.09c-0.17,0.25-0.67,1-0.3,1.69c0.24,0.44,0.71,0.66,1.41,0.66h3.66
		c0.65,0,1.58-0.27,2.34-1.57l11.3-20.33l11.29,20.3c0.53,1.06,1.22,1.6,2.05,1.6h3.95c0.65,0,1.11-0.21,1.35-0.63
		C219.7,160.01,219.26,159.25,219.11,158.99z"/>
</g>
</svg>
