<?xml version="1.0" encoding="UTF-8" standalone="no"?>
<!-- Generator: Adobe Illustrator 23.0.4, SVG Export Plug-In . SVG Version: 6.00 Build 0)  -->

<svg
   xmlns:dc="http://purl.org/dc/elements/1.1/"
   xmlns:cc="http://creativecommons.org/ns#"
   xmlns:rdf="http://www.w3.org/1999/02/22-rdf-syntax-ns#"
   xmlns:svg="http://www.w3.org/2000/svg"
   xmlns="http://www.w3.org/2000/svg"
   xmlns:sodipodi="http://sodipodi.sourceforge.net/DTD/sodipodi-0.dtd"
   xmlns:inkscape="http://www.inkscape.org/namespaces/inkscape"
   version="1.1"
   id="Layer_1"
   x="0px"
   y="0px"
   viewBox="0 0 542.4 169.48"
   style="enable-background:new 0 0 542.4 169.48;"
   xml:space="preserve"
   sodipodi:docname="xBim_parent_logo_white.svg"
   inkscape:version="0.92.3 (2405546, 2018-03-11)"><metadata
   id="metadata21"><rdf:RDF><cc:Work
       rdf:about=""><dc:format>image/svg+xml</dc:format><dc:type
         rdf:resource="http://purl.org/dc/dcmitype/StillImage" /></cc:Work></rdf:RDF></metadata><defs
   id="defs19" /><sodipodi:namedview
   pagecolor="#ffffff"
   bordercolor="#666666"
   borderopacity="1"
   objecttolerance="10"
   gridtolerance="10"
   guidetolerance="10"
   inkscape:pageopacity="0"
   inkscape:pageshadow="2"
   inkscape:window-width="2560"
   inkscape:window-height="1377"
   id="namedview17"
   showgrid="false"
   inkscape:zoom="0.52912977"
   inkscape:cx="35.908016"
   inkscape:cy="84.739998"
   inkscape:window-x="-8"
   inkscape:window-y="-8"
   inkscape:window-maximized="1"
   inkscape:current-layer="Layer_1" />
<style
   type="text/css"
   id="style2">
	.st0{fill:#FFFFFF;}
	.st1{enable-background:new    ;}
</style>
<path
   class="st0"
   d="M539.99,110.99l-15.04-22.66c-1.59-2.4-1.59-5.5,0-7.9l14.44-21.77c2.92-4.41,3.19-10.04,0.69-14.7  c-2.5-4.66-7.34-7.56-12.63-7.56h-20.7c-5.49,0-10.65,2.93-13.47,7.65l-5.24,8.8c-1.13,1.9-0.51,4.35,1.39,5.48  c1.9,1.13,4.35,0.51,5.48-1.39l5.24-8.8c1.38-2.31,3.91-3.75,6.59-3.75h20.7c2.37,0,4.46,1.25,5.58,3.34  c1.12,2.09,1.01,4.52-0.3,6.5L518.28,76c-3.37,5.09-3.37,11.66,0,16.75l15.04,22.66c1.31,1.98,1.43,4.41,0.3,6.5  s-3.21,3.34-5.58,3.34h-20.4c-3.2,0-5.78-0.82-8.03-4.91L435.85,9.96C432.23,3.82,425.55,0,418.42,0h-25.53  c-6.16,0-11.58,3.24-14.5,8.67c-2.91,5.43-2.62,11.74,0.79,16.87l34.56,52.07c0.07,0.13,0.12,0.27,0.21,0.4  c1.35,2.04,2.03,4.38,2.04,6.72c-0.01,2.34-0.69,4.68-2.04,6.72c-0.08,0.13-0.14,0.26-0.21,0.4l-34.56,52.08  c-3.41,5.14-3.7,11.44-0.79,16.87c2.91,5.43,8.33,8.67,14.5,8.67h25.53c7.13,0,13.81-3.82,17.43-9.95l26.2-44.23  c1.13-1.9,0.5-4.35-1.4-5.48c-1.9-1.13-4.35-0.5-5.48,1.4l-26.2,44.24c-2.19,3.71-6.23,6.02-10.54,6.02h-25.53  c-3.17,0-5.95-1.67-7.45-4.46s-1.35-6.03,0.41-8.67l34.77-52.39c2.26-3.41,3.39-7.32,3.38-11.23c0.01-3.91-1.12-7.82-3.38-11.23  l-34.77-52.39c-1.75-2.64-1.9-5.88-0.41-8.67S389.73,8,392.89,8h25.53c4.31,0,8.35,2.31,10.52,5.99l63.71,110.27  c3.32,6.05,8.23,8.99,14.99,8.99h20.4c5.29,0,10.13-2.9,12.63-7.56C543.18,121.03,542.92,115.4,539.99,110.99z"
   id="path4"
   style="fill:#cccccc" />
<g
   class="st1"
   id="g14"
   style="fill:#cccccc">
	<path
   class="st0"
   d="M18.53,124.89H2.78c-2.71,0-3.43-1.09-2.18-3.28l19.66-37.29L0.59,48.6c-1.04-2.18-0.42-3.28,1.87-3.28h15.91   c2.5,0,4.11,1.09,4.84,3.28l9.83,23.72h0.62l8.58-23.72c0.73-2.18,2.34-3.28,4.84-3.28h15.6c2.7,0,3.38,1.09,2.03,3.28L45.99,84.33   l20.13,37.29c0.52,0.94,0.6,1.72,0.23,2.34c-0.37,0.62-1.07,0.94-2.11,0.94H48.18c-2.19,0-3.74-1.09-4.68-3.28l-9.83-23.87h-0.62   l-9.83,23.87C22.49,123.8,20.93,124.89,18.53,124.89z"
   id="path6"
   style="fill:#cccccc" />
	<path
   class="st0"
   d="M92.23,121.62V18.48c0-2.19,1.09-3.28,3.28-3.28h13.26c2.18,0,3.28,1.09,3.28,3.28v35.1h0.62   c1.14-2.81,3.17-4.94,6.09-6.4c2.91-1.45,5.98-2.18,9.21-2.18h4.99c8.22,0,14.56,2.18,19.03,6.55c4.47,4.37,6.71,10.66,6.71,18.88   v29.02c0,8.22-2.24,14.51-6.71,18.88c-4.47,4.37-10.82,6.55-19.03,6.55H95.5C93.32,124.89,92.23,123.8,92.23,121.62z    M113.76,107.73h15.91c3.33,0,5.7-0.7,7.1-2.11c1.4-1.4,2.11-3.77,2.11-7.1V71.38c0-3.33-0.7-5.7-2.11-7.1   c-1.4-1.4-3.77-2.11-7.1-2.11h-6.87c-7.18,0-10.77,3.96-10.77,11.86v31.99C112.04,107.16,112.61,107.73,113.76,107.73z"
   id="path8"
   style="fill:#cccccc" />
	<path
   class="st0"
   d="M187.71,31.9V18.33c0-2.08,1.04-3.12,3.12-3.12h13.57c2.08,0,3.12,0.99,3.12,2.96V31.9   c0,2.08-1.04,3.12-3.12,3.12h-13.57C188.75,35.02,187.71,33.98,187.71,31.9z M187.71,121.62V48.6c0-2.18,1.04-3.28,3.12-3.28h13.42   c2.18,0,3.28,1.09,3.28,3.28v73.02c0,1.35-0.23,2.24-0.7,2.65c-0.47,0.42-1.28,0.62-2.42,0.62h-13.42   C188.8,124.89,187.71,123.8,187.71,121.62z"
   id="path10"
   style="fill:#cccccc" />
	<path
   class="st0"
   d="M252.88,124.89h-13.26c-2.18,0-3.28-1.09-3.28-3.28V48.6c0-2.18,1.09-3.28,3.28-3.28h13.26   c2.18,0,3.28,1.09,3.28,3.28v5.15h0.62c1.25-2.5,3.35-4.52,6.32-6.08c2.96-1.56,6.37-2.34,10.22-2.34h4.37   c9.05,0,15.55,3.33,19.5,9.99c3.53-6.66,9.62-9.99,18.25-9.99h4.53c8.01,0,14.07,2.19,18.18,6.55c4.11,4.37,6.16,10.66,6.16,18.88   v50.86c0,2.18-1.09,3.28-3.28,3.28h-13.26c-2.19,0-3.28-1.09-3.28-3.28V71.69c0-3.33-0.68-5.69-2.03-7.1   c-1.35-1.4-3.69-2.11-7.02-2.11h-3.9c-7.18,0-10.77,4.01-10.77,12.01v47.12c0,2.18-1.15,3.28-3.43,3.28h-13.11   c-2.18,0-3.28-1.09-3.28-3.28V71.69c0-3.33-0.7-5.69-2.11-7.1c-1.4-1.4-3.77-2.11-7.1-2.11h-4.84c-7.18,0-10.77,3.96-10.77,11.86   v47.28C256.16,123.8,255.06,124.89,252.88,124.89z"
   id="path12"
   style="fill:#cccccc" />
</g>
</svg>